<mxfile host="65bd71144e">
    <diagram id="OgsiZiWi2NYhO9IixufU" name="PÃ¡gina-1">
        <mxGraphModel dx="551" dy="216" grid="1" gridSize="10" guides="1" tooltips="1" connect="1" arrows="1" fold="1" page="1" pageScale="1" pageWidth="827" pageHeight="1169" math="0" shadow="0">
            <root>
                <mxCell id="0"/>
                <mxCell id="1" parent="0"/>
                <mxCell id="4" value="" style="edgeStyle=none;html=1;" edge="1" parent="1" source="2" target="3">
                    <mxGeometry relative="1" as="geometry"/>
                </mxCell>
                <mxCell id="2" value="INICIO" style="ellipse;whiteSpace=wrap;html=1;gradientColor=#FF6666;gradientDirection=radial;" vertex="1" parent="1">
                    <mxGeometry x="220" width="120" height="80" as="geometry"/>
                </mxCell>
                <mxCell id="6" value="" style="edgeStyle=none;html=1;" edge="1" parent="1" source="3" target="5">
                    <mxGeometry relative="1" as="geometry"/>
                </mxCell>
                <mxCell id="3" value="a = 0&lt;br&gt;b = 1&lt;br&gt;c - c + b" style="whiteSpace=wrap;html=1;gradientColor=#D4006A;gradientDirection=radial;" vertex="1" parent="1">
                    <mxGeometry x="220" y="100" width="120" height="60" as="geometry"/>
                </mxCell>
                <mxCell id="8" value="" style="edgeStyle=none;html=1;" edge="1" parent="1" source="5" target="7">
                    <mxGeometry relative="1" as="geometry"/>
                </mxCell>
                <mxCell id="10" value="" style="edgeStyle=none;html=1;" edge="1" parent="1" source="5" target="9">
                    <mxGeometry relative="1" as="geometry"/>
                </mxCell>
                <mxCell id="5" value="c &amp;lt; 10000" style="rhombus;whiteSpace=wrap;html=1;gradientColor=#A65FED;gradientDirection=radial;" vertex="1" parent="1">
                    <mxGeometry x="240" y="180" width="80" height="80" as="geometry"/>
                </mxCell>
                <mxCell id="7" value="FIN" style="ellipse;whiteSpace=wrap;html=1;gradientColor=#990000;gradientDirection=radial;" vertex="1" parent="1">
                    <mxGeometry x="340" y="190" width="120" height="60" as="geometry"/>
                </mxCell>
                <mxCell id="12" value="" style="edgeStyle=none;html=1;exitX=0.496;exitY=0.832;exitDx=0;exitDy=0;exitPerimeter=0;" edge="1" parent="1" source="9" target="11">
                    <mxGeometry relative="1" as="geometry"/>
                </mxCell>
                <mxCell id="9" value="c" style="shape=document;whiteSpace=wrap;html=1;boundedLbl=1;gradientColor=#66FFFF;gradientDirection=radial;" vertex="1" parent="1">
                    <mxGeometry x="220" y="280" width="120" height="80" as="geometry"/>
                </mxCell>
                <mxCell id="13" style="edgeStyle=none;html=1;exitX=0.5;exitY=1;exitDx=0;exitDy=0;entryX=0.5;entryY=0;entryDx=0;entryDy=0;" edge="1" parent="1" source="11" target="5">
                    <mxGeometry relative="1" as="geometry">
                        <mxPoint x="190" y="290" as="targetPoint"/>
                        <Array as="points">
                            <mxPoint x="280" y="470"/>
                            <mxPoint x="180" y="470"/>
                            <mxPoint x="180" y="180"/>
                        </Array>
                    </mxGeometry>
                </mxCell>
                <mxCell id="11" value="a = b&lt;br&gt;b = c&lt;br&gt;c = a + b" style="whiteSpace=wrap;html=1;gradientColor=#0000FF;gradientDirection=radial;" vertex="1" parent="1">
                    <mxGeometry x="220" y="380" width="120" height="60" as="geometry"/>
                </mxCell>
                <mxCell id="14" value="V" style="text;html=1;align=center;verticalAlign=middle;resizable=0;points=[];autosize=1;strokeColor=none;fillColor=none;" vertex="1" parent="1">
                    <mxGeometry x="280" y="250" width="20" height="20" as="geometry"/>
                </mxCell>
                <mxCell id="15" value="F" style="text;html=1;align=center;verticalAlign=middle;resizable=0;points=[];autosize=1;strokeColor=none;fillColor=none;" vertex="1" parent="1">
                    <mxGeometry x="320" y="200" width="20" height="20" as="geometry"/>
                </mxCell>
            </root>
        </mxGraphModel>
    </diagram>
</mxfile>